{
	"asset":{
		"generator":"Khronos glTF Blender I/O v3.5.30",
		"version":"2.0"
	},
	"extensionsUsed":[
		"KHR_materials_emissive_strength"
	],
	"scene":0,
	"scenes":[
		{
			"name":"Scene",
			"nodes":[
				0,
				1,
				2
			]
		}
	],
	"nodes":[
		{
			"mesh":0,
			"name":"Cube.610",
			"rotation":[
				0,
				-0.9796320796012878,
				0,
				0.20080098509788513
			],
			"scale":[
				1,
				0.04143185168504715,
				0.7110094428062439
			],
			"translation":[
				0.41749390959739685,
				0.04369404911994934,
				0.15610113739967346
			]
		},
		{
			"mesh":1,
			"name":"Cube.609",
			"rotation":[
				0.1718776673078537,
				-0.5065102577209473,
				0.8385263085365295,
				0.10382237285375595
			],
			"scale":[
				1,
				0.02023492008447647,
				0.7110094428062439
			],
			"translation":[
				-0.00046816468238830566,
				0.7024984359741211,
				-0.820602536201477
			]
		},
		{
			"mesh":2,
			"name":"Cube.608",
			"rotation":[
				0,
				-0.9796321392059326,
				0,
				0.20080097019672394
			],
			"scale":[
				0.05000000819563866,
				0.009999999776482582,
				0.05000000819563866
			],
			"translation":[
				-0.3661612570285797,
				0.07982423901557922,
				0.46271219849586487
			]
		}
	],
	"materials":[
		{
			"doubleSided":true,
			"name":"cassis",
			"pbrMetallicRoughness":{
				"baseColorFactor":[
					0.3588395118713379,
					0.3588395118713379,
					0.3588395118713379,
					1
				],
				"metallicFactor":0.4922279715538025,
				"roughnessFactor":0.5
			}
		},
		{
			"doubleSided":true,
			"name":"trackpad",
			"pbrMetallicRoughness":{
				"baseColorFactor":[
					0.800000011920929,
					0.800000011920929,
					0.800000011920929,
					1
				],
				"metallicFactor":0.3575129508972168,
				"roughnessFactor":0.2927461266517639
			}
		},
		{
			"doubleSided":true,
			"emissiveFactor":[
				1,
				1,
				1
			],
			"extensions":{
				"KHR_materials_emissive_strength":{
					"emissiveStrength":8.549739718437195
				}
			},
			"name":"screen",
			"pbrMetallicRoughness":{
				"baseColorFactor":[
					0,
					0,
					0,
					1
				],
				"metallicFactor":0.8860103487968445,
				"roughnessFactor":0.06994819641113281
			}
		},
		{
			"doubleSided":true,
			"name":"keys",
			"pbrMetallicRoughness":{
				"baseColorFactor":[
					0.01002169493585825,
					0.01002169493585825,
					0.01002169493585825,
					1
				],
				"metallicFactor":0.20207254588603973,
				"roughnessFactor":0.1787564754486084
			}
		}
	],
	"meshes":[
		{
			"name":"Cube.145",
			"primitives":[
				{
					"attributes":{
						"POSITION":0,
						"TEXCOORD_0":1,
						"NORMAL":2
					},
					"indices":3,
					"material":0
				},
				{
					"attributes":{
						"POSITION":4,
						"TEXCOORD_0":5,
						"NORMAL":6
					},
					"indices":7,
					"material":1
				}
			]
		},
		{
			"name":"Cube.144",
			"primitives":[
				{
					"attributes":{
						"POSITION":8,
						"TEXCOORD_0":9,
						"NORMAL":10
					},
					"indices":11,
					"material":2
				},
				{
					"attributes":{
						"POSITION":12,
						"TEXCOORD_0":13,
						"NORMAL":14
					},
					"indices":15,
					"material":0
				}
			]
		},
		{
			"name":"Cube.143",
			"primitives":[
				{
					"attributes":{
						"POSITION":16,
						"TEXCOORD_0":17,
						"NORMAL":18
					},
					"indices":19,
					"material":3
				}
			]
		}
	],
	"accessors":[
		{
			"bufferView":0,
			"componentType":5126,
			"count":76,
			"max":[
				1,
				1,
				1
			],
			"min":[
				-1,
				-1,
				-1
			],
			"type":"VEC3"
		},
		{
			"bufferView":1,
			"componentType":5126,
			"count":76,
			"type":"VEC2"
		},
		{
			"bufferView":2,
			"componentType":5126,
			"count":76,
			"type":"VEC3"
		},
		{
			"bufferView":3,
			"componentType":5123,
			"count":150,
			"type":"SCALAR"
		},
		{
			"bufferView":4,
			"componentType":5126,
			"count":4,
			"max":[
				0.40004098415374756,
				0.8657113909721375,
				-0.16821521520614624
			],
			"min":[
				-0.40004098415374756,
				0.8657113909721375,
				-0.9100114703178406
			],
			"type":"VEC3"
		},
		{
			"bufferView":5,
			"componentType":5126,
			"count":4,
			"type":"VEC2"
		},
		{
			"bufferView":6,
			"componentType":5126,
			"count":4,
			"type":"VEC3"
		},
		{
			"bufferView":7,
			"componentType":5123,
			"count":6,
			"type":"SCALAR"
		},
		{
			"bufferView":8,
			"componentType":5126,
			"count":4,
			"max":[
				0.9565634727478027,
				-0.9999991655349731,
				0.9289922118186951
			],
			"min":[
				-0.9565634727478027,
				-1.0000008344650269,
				-0.9289922118186951
			],
			"type":"VEC3"
		},
		{
			"bufferView":9,
			"componentType":5126,
			"count":4,
			"type":"VEC2"
		},
		{
			"bufferView":10,
			"componentType":5126,
			"count":4,
			"type":"VEC3"
		},
		{
			"bufferView":11,
			"componentType":5123,
			"count":6,
			"type":"SCALAR"
		},
		{
			"bufferView":12,
			"componentType":5126,
			"count":32,
			"max":[
				1,
				1.0000019073486328,
				1
			],
			"min":[
				-1,
				-1.0000008344650269,
				-1
			],
			"type":"VEC3"
		},
		{
			"bufferView":13,
			"componentType":5126,
			"count":32,
			"type":"VEC2"
		},
		{
			"bufferView":14,
			"componentType":5126,
			"count":32,
			"type":"VEC3"
		},
		{
			"bufferView":15,
			"componentType":5123,
			"count":78,
			"type":"SCALAR"
		},
		{
			"bufferView":16,
			"componentType":5126,
			"count":1800,
			"max":[
				1,
				1,
				10.600000381469727
			],
			"min":[
				-34.599998474121094,
				-1,
				-1
			],
			"type":"VEC3"
		},
		{
			"bufferView":17,
			"componentType":5126,
			"count":1800,
			"type":"VEC2"
		},
		{
			"bufferView":18,
			"componentType":5126,
			"count":1800,
			"type":"VEC3"
		},
		{
			"bufferView":19,
			"componentType":5123,
			"count":2700,
			"type":"SCALAR"
		}
	],
	"bufferViews":[
		{
			"buffer":0,
			"byteLength":912,
			"byteOffset":0,
			"target":34962
		},
		{
			"buffer":0,
			"byteLength":608,
			"byteOffset":912,
			"target":34962
		},
		{
			"buffer":0,
			"byteLength":912,
			"byteOffset":1520,
			"target":34962
		},
		{
			"buffer":0,
			"byteLength":300,
			"byteOffset":2432,
			"target":34963
		},
		{
			"buffer":0,
			"byteLength":48,
			"byteOffset":2732,
			"target":34962
		},
		{
			"buffer":0,
			"byteLength":32,
			"byteOffset":2780,
			"target":34962
		},
		{
			"buffer":0,
			"byteLength":48,
			"byteOffset":2812,
			"target":34962
		},
		{
			"buffer":0,
			"byteLength":12,
			"byteOffset":2860,
			"target":34963
		},
		{
			"buffer":0,
			"byteLength":48,
			"byteOffset":2872,
			"target":34962
		},
		{
			"buffer":0,
			"byteLength":32,
			"byteOffset":2920,
			"target":34962
		},
		{
			"buffer":0,
			"byteLength":48,
			"byteOffset":2952,
			"target":34962
		},
		{
			"buffer":0,
			"byteLength":12,
			"byteOffset":3000,
			"target":34963
		},
		{
			"buffer":0,
			"byteLength":384,
			"byteOffset":3012,
			"target":34962
		},
		{
			"buffer":0,
			"byteLength":256,
			"byteOffset":3396,
			"target":34962
		},
		{
			"buffer":0,
			"byteLength":384,
			"byteOffset":3652,
			"target":34962
		},
		{
			"buffer":0,
			"byteLength":156,
			"byteOffset":4036,
			"target":34963
		},
		{
			"buffer":0,
			"byteLength":21600,
			"byteOffset":4192,
			"target":34962
		},
		{
			"buffer":0,
			"byteLength":14400,
			"byteOffset":25792,
			"target":34962
		},
		{
			"buffer":0,
			"byteLength":21600,
			"byteOffset":40192,
			"target":34962
		},
		{
			"buffer":0,
			"byteLength":5400,
			"byteOffset":61792,
			"target":34963
		}
	],
	"buffers":[
		{
			"byteLength":67192,
			"uri":"data:application/octet-stream;base64,"
		}
	]
}
