{
	"asset":{
		"generator":"Khronos glTF Blender I/O v3.5.30",
		"version":"2.0"
	},
	"scene":0,
	"scenes":[
		{
			"name":"Scene",
			"nodes":[
				0
			]
		}
	],
	"nodes":[
		{
			"mesh":0,
			"name":"Coffee Cup",
			"rotation":[
				0,
				-0.7573009133338928,
				0,
				0.653066098690033
			],
			"scale":[
				0.25,
				0.25,
				0.25
			],
			"translation":[
				-0.004177302122116089,
				0.005625277757644653,
				-0.0010782033205032349
			]
		}
	],
	"materials":[
		{
			"doubleSided":true,
			"name":"Material.001",
			"pbrMetallicRoughness":{
				"baseColorFactor":[
					0.800000011920929,
					0.800000011920929,
					0.800000011920929,
					1
				],
				"metallicFactor":0,
				"roughnessFactor":0.4000000059604645
			}
		},
		{
			"doubleSided":true,
			"name":"Material.003",
			"pbrMetallicRoughness":{
				"baseColorFactor":[
					0.19017721712589264,
					0.14453759789466858,
					0.12287785857915878,
					1
				],
				"metallicFactor":0.8290154933929443,
				"roughnessFactor":0.5
			}
		}
	],
	"meshes":[
		{
			"name":"Circle.001",
			"primitives":[
				{
					"attributes":{
						"POSITION":0,
						"TEXCOORD_0":1,
						"NORMAL":2
					},
					"indices":3,
					"material":0
				},
				{
					"attributes":{
						"POSITION":4,
						"TEXCOORD_0":5,
						"NORMAL":6
					},
					"indices":7,
					"material":1
				}
			]
		}
	],
	"accessors":[
		{
			"bufferView":0,
			"componentType":5126,
			"count":146,
			"max":[
				1.3635196685791016,
				1.9945484399795532,
				1
			],
			"min":[
				-0.9510565400123596,
				0,
				-1.050325870513916
			],
			"type":"VEC3"
		},
		{
			"bufferView":1,
			"componentType":5126,
			"count":146,
			"type":"VEC2"
		},
		{
			"bufferView":2,
			"componentType":5126,
			"count":146,
			"type":"VEC3"
		},
		{
			"bufferView":3,
			"componentType":5123,
			"count":276,
			"type":"SCALAR"
		},
		{
			"bufferView":4,
			"componentType":5126,
			"count":10,
			"max":[
				0.7418423891067505,
				1.6466482877731323,
				0.780019223690033
			],
			"min":[
				-0.7418423295021057,
				1.6466482877731323,
				-0.780019223690033
			],
			"type":"VEC3"
		},
		{
			"bufferView":5,
			"componentType":5126,
			"count":10,
			"type":"VEC2"
		},
		{
			"bufferView":6,
			"componentType":5126,
			"count":10,
			"type":"VEC3"
		},
		{
			"bufferView":7,
			"componentType":5123,
			"count":24,
			"type":"SCALAR"
		}
	],
	"bufferViews":[
		{
			"buffer":0,
			"byteLength":1752,
			"byteOffset":0,
			"target":34962
		},
		{
			"buffer":0,
			"byteLength":1168,
			"byteOffset":1752,
			"target":34962
		},
		{
			"buffer":0,
			"byteLength":1752,
			"byteOffset":2920,
			"target":34962
		},
		{
			"buffer":0,
			"byteLength":552,
			"byteOffset":4672,
			"target":34963
		},
		{
			"buffer":0,
			"byteLength":120,
			"byteOffset":5224,
			"target":34962
		},
		{
			"buffer":0,
			"byteLength":80,
			"byteOffset":5344,
			"target":34962
		},
		{
			"buffer":0,
			"byteLength":120,
			"byteOffset":5424,
			"target":34962
		},
		{
			"buffer":0,
			"byteLength":48,
			"byteOffset":5544,
			"target":34963
		}
	],
	"buffers":[
		{
			"byteLength":5592,
			"uri":"data:application/octet-stream;base64,"
		}
	]
}
