{
	"asset":{
		"generator":"Khronos glTF Blender I/O v3.5.30",
		"version":"2.0"
	},
	"scene":0,
	"scenes":[
		{
			"name":"Scene",
			"nodes":[
				0
			]
		}
	],
	"nodes":[
		{
			"mesh":0,
			"name":"Cube"
		}
	],
	"animations":[
		{
			"channels":[
				{
					"sampler":0,
					"target":{
						"node":0,
						"path":"translation"
					}
				},
				{
					"sampler":1,
					"target":{
						"node":0,
						"path":"rotation"
					}
				},
				{
					"sampler":2,
					"target":{
						"node":0,
						"path":"scale"
					}
				}
			],
			"name":"Cube",
			"samplers":[
				{
					"input":12,
					"interpolation":"LINEAR",
					"output":13
				},
				{
					"input":12,
					"interpolation":"LINEAR",
					"output":14
				},
				{
					"input":12,
					"interpolation":"LINEAR",
					"output":15
				}
			]
		}
	],
	"materials":[
		{
			"doubleSided":true,
			"name":"front",
			"pbrMetallicRoughness":{
				"baseColorFactor":[
					0,
					0.012870116159319878,
					0.8000000715255737,
					1
				],
				"metallicFactor":0,
				"roughnessFactor":0.5
			}
		},
		{
			"doubleSided":true,
			"name":"edge",
			"pbrMetallicRoughness":{
				"baseColorFactor":[
					0.8000000715255737,
					0.01665455289185047,
					0.4217223823070526,
					1
				],
				"metallicFactor":0,
				"roughnessFactor":0.5
			}
		},
		{
			"doubleSided":true,
			"name":"back",
			"pbrMetallicRoughness":{
				"baseColorFactor":[
					0.03228975087404251,
					0.8000000715255737,
					0.010818840004503727,
					1
				],
				"metallicFactor":0,
				"roughnessFactor":0.5
			}
		}
	],
	"meshes":[
		{
			"name":"Cube.001",
			"primitives":[
				{
					"attributes":{
						"POSITION":0,
						"TEXCOORD_0":1,
						"NORMAL":2
					},
					"indices":3,
					"material":0
				},
				{
					"attributes":{
						"POSITION":4,
						"TEXCOORD_0":5,
						"NORMAL":6
					},
					"indices":7,
					"material":1
				},
				{
					"attributes":{
						"POSITION":8,
						"TEXCOORD_0":9,
						"NORMAL":10
					},
					"indices":11,
					"material":2
				}
			]
		}
	],
	"accessors":[
		{
			"bufferView":0,
			"componentType":5126,
			"count":40,
			"max":[
				1,
				1.0001296997070312,
				0.9999999403953552
			],
			"min":[
				1,
				-0.9992907047271729,
				-1
			],
			"type":"VEC3"
		},
		{
			"bufferView":1,
			"componentType":5126,
			"count":40,
			"type":"VEC2"
		},
		{
			"bufferView":2,
			"componentType":5126,
			"count":40,
			"type":"VEC3"
		},
		{
			"bufferView":3,
			"componentType":5123,
			"count":114,
			"type":"SCALAR"
		},
		{
			"bufferView":4,
			"componentType":5126,
			"count":160,
			"max":[
				1,
				1.0001296997070312,
				0.9999999403953552
			],
			"min":[
				-1,
				-0.9992907047271729,
				-1
			],
			"type":"VEC3"
		},
		{
			"bufferView":5,
			"componentType":5126,
			"count":160,
			"type":"VEC2"
		},
		{
			"bufferView":6,
			"componentType":5126,
			"count":160,
			"type":"VEC3"
		},
		{
			"bufferView":7,
			"componentType":5123,
			"count":240,
			"type":"SCALAR"
		},
		{
			"bufferView":8,
			"componentType":5126,
			"count":40,
			"max":[
				-1,
				1.0001296997070312,
				0.9999999403953552
			],
			"min":[
				-1,
				-0.9992907047271729,
				-1
			],
			"type":"VEC3"
		},
		{
			"bufferView":9,
			"componentType":5126,
			"count":40,
			"type":"VEC2"
		},
		{
			"bufferView":10,
			"componentType":5126,
			"count":40,
			"type":"VEC3"
		},
		{
			"bufferView":11,
			"componentType":5123,
			"count":114,
			"type":"SCALAR"
		},
		{
			"bufferView":12,
			"componentType":5126,
			"count":2,
			"max":[
				0.041666666666666664
			],
			"min":[
				0
			],
			"type":"SCALAR"
		},
		{
			"bufferView":13,
			"componentType":5126,
			"count":2,
			"type":"VEC3"
		},
		{
			"bufferView":14,
			"componentType":5126,
			"count":2,
			"type":"VEC4"
		},
		{
			"bufferView":15,
			"componentType":5126,
			"count":2,
			"type":"VEC3"
		}
	],
	"bufferViews":[
		{
			"buffer":0,
			"byteLength":480,
			"byteOffset":0,
			"target":34962
		},
		{
			"buffer":0,
			"byteLength":320,
			"byteOffset":480,
			"target":34962
		},
		{
			"buffer":0,
			"byteLength":480,
			"byteOffset":800,
			"target":34962
		},
		{
			"buffer":0,
			"byteLength":228,
			"byteOffset":1280,
			"target":34963
		},
		{
			"buffer":0,
			"byteLength":1920,
			"byteOffset":1508,
			"target":34962
		},
		{
			"buffer":0,
			"byteLength":1280,
			"byteOffset":3428,
			"target":34962
		},
		{
			"buffer":0,
			"byteLength":1920,
			"byteOffset":4708,
			"target":34962
		},
		{
			"buffer":0,
			"byteLength":480,
			"byteOffset":6628,
			"target":34963
		},
		{
			"buffer":0,
			"byteLength":480,
			"byteOffset":7108,
			"target":34962
		},
		{
			"buffer":0,
			"byteLength":320,
			"byteOffset":7588,
			"target":34962
		},
		{
			"buffer":0,
			"byteLength":480,
			"byteOffset":7908,
			"target":34962
		},
		{
			"buffer":0,
			"byteLength":228,
			"byteOffset":8388,
			"target":34963
		},
		{
			"buffer":0,
			"byteLength":8,
			"byteOffset":8616
		},
		{
			"buffer":0,
			"byteLength":24,
			"byteOffset":8624
		},
		{
			"buffer":0,
			"byteLength":32,
			"byteOffset":8648
		},
		{
			"buffer":0,
			"byteLength":24,
			"byteOffset":8680
		}
	],
	"buffers":[
		{
			"byteLength":8704,
			"uri":"data:application/octet-stream;base64,"
		}
	]
}
