{
	"asset":{
		"generator":"Khronos glTF Blender I/O v3.5.30",
		"version":"2.0"
	},
	"scene":0,
	"scenes":[
		{
			"name":"Scene",
			"nodes":[
				0
			]
		}
	],
	"nodes":[
		{
			"mesh":0,
			"name":"Cube"
		}
	],
	"meshes":[
		{
			"name":"Cube",
			"primitives":[
				{
					"attributes":{
						"POSITION":0,
						"TEXCOORD_0":1,
						"NORMAL":2
					},
					"indices":3
				},
				{
					"attributes":{
						"POSITION":4,
						"TEXCOORD_0":5,
						"NORMAL":6
					},
					"indices":7
				}
			]
		}
	],
	"accessors":[
		{
			"bufferView":0,
			"componentType":5126,
			"count":1166,
			"max":[
				0.9999794363975525,
				0.9999861717224121,
				1.7869751900434494e-08
			],
			"min":[
				-0.9999794363975525,
				-0.9999861717224121,
				-0.9999170899391174
			],
			"type":"VEC3"
		},
		{
			"bufferView":1,
			"componentType":5126,
			"count":1166,
			"type":"VEC2"
		},
		{
			"bufferView":2,
			"componentType":5126,
			"count":1166,
			"type":"VEC3"
		},
		{
			"bufferView":3,
			"componentType":5123,
			"count":1800,
			"type":"SCALAR"
		},
		{
			"bufferView":4,
			"componentType":5126,
			"count":1164,
			"max":[
				0.9999794363975525,
				0.9999861717224121,
				0.9999170899391174
			],
			"min":[
				-0.9999794363975525,
				-0.9999861717224121,
				-1.7869751900434494e-08
			],
			"type":"VEC3"
		},
		{
			"bufferView":5,
			"componentType":5126,
			"count":1164,
			"type":"VEC2"
		},
		{
			"bufferView":6,
			"componentType":5126,
			"count":1164,
			"type":"VEC3"
		},
		{
			"bufferView":7,
			"componentType":5123,
			"count":1800,
			"type":"SCALAR"
		}
	],
	"bufferViews":[
		{
			"buffer":0,
			"byteLength":13992,
			"byteOffset":0,
			"target":34962
		},
		{
			"buffer":0,
			"byteLength":9328,
			"byteOffset":13992,
			"target":34962
		},
		{
			"buffer":0,
			"byteLength":13992,
			"byteOffset":23320,
			"target":34962
		},
		{
			"buffer":0,
			"byteLength":3600,
			"byteOffset":37312,
			"target":34963
		},
		{
			"buffer":0,
			"byteLength":13968,
			"byteOffset":40912,
			"target":34962
		},
		{
			"buffer":0,
			"byteLength":9312,
			"byteOffset":54880,
			"target":34962
		},
		{
			"buffer":0,
			"byteLength":13968,
			"byteOffset":64192,
			"target":34962
		},
		{
			"buffer":0,
			"byteLength":3600,
			"byteOffset":78160,
			"target":34963
		}
	],
	"buffers":[
		{
			"byteLength":81760,
			"uri":"data:application/octet-stream;base64,"
		}
	]
}
