{
	"asset":{
		"generator":"Khronos glTF Blender I/O v3.5.30",
		"version":"2.0"
	},
	"scene":0,
	"scenes":[
		{
			"name":"Scene",
			"nodes":[
				0
			]
		}
	],
	"nodes":[
		{
			"mesh":0,
			"name":"Cube"
		}
	],
	"meshes":[
		{
			"name":"Cube",
			"primitives":[
				{
					"attributes":{
						"POSITION":0,
						"TEXCOORD_0":1,
						"NORMAL":2
					},
					"indices":3
				},
				{
					"attributes":{
						"POSITION":4,
						"TEXCOORD_0":5,
						"NORMAL":6
					},
					"indices":7
				}
			]
		}
	],
	"accessors":[
		{
			"bufferView":0,
			"componentType":5126,
			"count":308,
			"max":[
				0.5,
				0.5,
				2.1855694143368964e-08
			],
			"min":[
				-0.5,
				-0.5,
				-0.5
			],
			"type":"VEC3"
		},
		{
			"bufferView":1,
			"componentType":5126,
			"count":308,
			"type":"VEC2"
		},
		{
			"bufferView":2,
			"componentType":5126,
			"count":308,
			"type":"VEC3"
		},
		{
			"bufferView":3,
			"componentType":5123,
			"count":510,
			"type":"SCALAR"
		},
		{
			"bufferView":4,
			"componentType":5126,
			"count":260,
			"max":[
				0.5,
				0.5,
				0.5
			],
			"min":[
				-0.5,
				-0.5,
				-2.1855694143368964e-08
			],
			"type":"VEC3"
		},
		{
			"bufferView":5,
			"componentType":5126,
			"count":260,
			"type":"VEC2"
		},
		{
			"bufferView":6,
			"componentType":5126,
			"count":260,
			"type":"VEC3"
		},
		{
			"bufferView":7,
			"componentType":5123,
			"count":390,
			"type":"SCALAR"
		}
	],
	"bufferViews":[
		{
			"buffer":0,
			"byteLength":3696,
			"byteOffset":0,
			"target":34962
		},
		{
			"buffer":0,
			"byteLength":2464,
			"byteOffset":3696,
			"target":34962
		},
		{
			"buffer":0,
			"byteLength":3696,
			"byteOffset":6160,
			"target":34962
		},
		{
			"buffer":0,
			"byteLength":1020,
			"byteOffset":9856,
			"target":34963
		},
		{
			"buffer":0,
			"byteLength":3120,
			"byteOffset":10876,
			"target":34962
		},
		{
			"buffer":0,
			"byteLength":2080,
			"byteOffset":13996,
			"target":34962
		},
		{
			"buffer":0,
			"byteLength":3120,
			"byteOffset":16076,
			"target":34962
		},
		{
			"buffer":0,
			"byteLength":780,
			"byteOffset":19196,
			"target":34963
		}
	],
	"buffers":[
		{
			"byteLength":19976,
			"uri":"data:application/octet-stream;base64,"
		}
	]
}
