<svg width="24" height="24" viewBox="0 0 24 24" fill="none" xmlns="http://www.w3.org/2000/svg">
<g clip-path="url(#clip0_284_49)">
<path d="M12.2489 6.68476C11.5929 9.37876 11.6349 9.23476 11.0399 11.6988C11.0269 11.9258 10.8389 12.1048 10.6099 12.1048C10.5849 12.1048 10.5599 12.1028 10.5359 12.0988H10.5389H9.86395C9.84395 12.1028 9.81995 12.1048 9.79695 12.1048C9.59395 12.1048 9.42695 11.9538 9.40095 11.7588V11.7568C8.82395 9.91076 8.05095 7.34676 7.53095 5.63176C7.33895 4.99876 7.46495 5.01376 7.96695 5.02676C8.14095 5.03176 8.30895 5.02676 8.48195 5.02676C8.49395 5.02576 8.50795 5.02476 8.52295 5.02476C8.71895 5.02476 8.88095 5.16976 8.90795 5.35776V5.35976C9.07695 5.96476 9.18895 6.42876 10.1539 10.2398C10.1719 10.3148 10.1959 10.3858 10.2199 10.4548H10.2709C10.2939 10.3608 10.3219 10.2728 10.3459 10.1778C10.7113 8.63576 11.0753 7.09242 11.4379 5.54776C11.5509 5.06776 11.7519 5.02276 12.2379 5.02276H12.5939C12.9139 5.02776 13.0159 5.09276 13.0959 5.41176C13.3769 6.50876 14.1979 10.1818 14.3469 10.5858C14.5869 9.72776 14.2629 10.9558 15.6829 5.47776C15.7809 5.09876 15.8749 5.02376 16.2599 5.02376H16.8509C17.1039 5.02876 17.1789 5.10776 17.1179 5.35676C17.0049 5.80276 16.9819 5.82076 15.1829 11.5848C15.0369 12.0488 14.9859 12.0908 14.4989 12.0908H14.0019C13.6599 12.0908 13.5709 12.0298 13.4869 11.6968C13.2849 10.9378 12.3949 7.21176 12.2489 6.68676V6.68476ZM5.88495 11.8958C5.95295 12.0348 6.09295 12.1288 6.25495 12.1288C6.36895 12.1288 6.47095 12.0828 6.54595 12.0078L6.84095 11.8108C7.16095 11.5998 7.18295 11.5158 7.00995 11.1778C6.82395 10.8238 6.71395 10.4048 6.71395 9.95976C6.71395 9.94476 6.71395 9.92976 6.71395 9.91476V9.91676C6.71395 9.77076 6.74195 7.30676 6.67195 6.78676C6.60995 5.91676 6.00695 5.20276 5.20095 4.97576L5.18695 4.97276C4.83395 4.87476 4.42895 4.81876 4.00995 4.81876C3.88395 4.81876 3.75795 4.82376 3.63495 4.83376L3.65095 4.83276C2.91495 4.86176 2.23095 5.05676 1.62595 5.37976L1.65095 5.36776C1.55995 5.41676 1.49195 5.49776 1.45995 5.59476L1.45895 5.59776C1.43295 5.71576 1.41795 5.85176 1.41795 5.99076C1.41795 6.05176 1.42095 6.11276 1.42595 6.17276L1.42495 6.16476C1.45295 6.44176 1.54695 6.49276 1.80895 6.40476C2.04895 6.32476 2.27795 6.22276 2.51695 6.15176C2.86195 6.02376 3.25995 5.94976 3.67595 5.94976C3.99895 5.94976 4.31095 5.99476 4.60695 6.07776L4.58295 6.07176C4.89995 6.16676 5.14695 6.40576 5.25095 6.71076L5.25295 6.71776C5.32995 6.97576 5.37495 7.27176 5.37495 7.57876C5.37495 7.67276 5.37095 7.76676 5.36295 7.85876L5.36395 7.84676C5.36395 8.10476 5.35895 8.10476 5.10595 8.05776C4.67595 7.95076 4.18295 7.88876 3.67495 7.88876C3.48795 7.88876 3.30195 7.89676 3.11895 7.91376L3.14295 7.91176C2.41695 7.96476 1.78295 8.31776 1.35595 8.84476L1.35195 8.84976C1.09195 9.20976 0.935949 9.66076 0.935949 10.1478C0.935949 10.3448 0.960949 10.5348 1.00895 10.7168L1.00595 10.7008C1.10995 11.3828 1.59395 11.9288 2.23095 12.1228L2.24295 12.1258C2.52295 12.2258 2.84595 12.2838 3.18295 12.2838C3.84995 12.2838 4.46495 12.0568 4.95295 11.6758L4.94695 11.6808C5.12495 11.5498 5.28495 11.3908 5.46695 11.2348C5.61295 11.4688 5.73895 11.6888 5.88395 11.8908L5.88495 11.8958ZM5.16495 9.00876H5.16995C5.28095 9.00876 5.37095 9.09876 5.37095 9.20976C5.37095 9.22376 5.36995 9.23676 5.36695 9.25076V9.24976C5.35695 9.42776 5.37195 9.60576 5.35295 9.78376C5.30295 10.3068 4.97595 10.7428 4.52295 10.9478L4.51395 10.9518C4.21995 11.1058 3.87295 11.1968 3.50395 11.1968C3.42895 11.1968 3.35495 11.1928 3.28195 11.1858L3.29095 11.1868C2.76195 11.1558 2.34495 10.7198 2.34495 10.1858C2.34495 10.1038 2.35495 10.0238 2.37395 9.94676L2.37295 9.95376C2.39895 9.40576 2.83295 8.96676 3.37695 8.93276H3.37995C3.58995 8.89876 3.83195 8.87976 4.07795 8.87976C4.46595 8.87976 4.84395 8.92776 5.20395 9.01776L5.17195 9.01076L5.16495 9.00876ZM21.5109 12.0598C22.3359 11.7828 22.9189 11.0168 22.9189 10.1148C22.9189 9.97376 22.9049 9.83576 22.8779 9.70276L22.8799 9.71576C22.7729 9.06276 22.3159 8.53876 21.7109 8.33676L21.6989 8.33276C20.7869 8.04676 20.0399 7.75776 19.3159 7.42776L19.4449 7.48076C19.2359 7.37576 19.0939 7.16576 19.0889 6.92176C19.0829 6.88476 19.0799 6.84176 19.0799 6.79876C19.0799 6.37976 19.3979 6.03576 19.8059 5.99376H19.8089C20.0199 5.94376 20.2619 5.91576 20.5109 5.91576C20.7279 5.91576 20.9409 5.93776 21.1459 5.97876L21.1259 5.97576C21.4679 6.04176 21.7959 6.17276 22.1289 6.27076C22.2599 6.31276 22.4059 6.36876 22.4949 6.19576C22.5409 6.09876 22.5679 5.98476 22.5679 5.86576C22.5679 5.56776 22.4019 5.30876 22.1569 5.17676L22.1529 5.17476C21.6589 4.93876 21.0789 4.80176 20.4669 4.80176C19.9209 4.80176 19.4009 4.91176 18.9269 5.10976L18.9529 5.09976C18.2279 5.38776 17.7249 6.08376 17.7249 6.89676C17.7249 7.67576 18.1869 8.34776 18.8519 8.65176L18.8639 8.65676C19.2249 8.83076 19.6179 8.93376 19.9979 9.07376C20.3779 9.21376 20.7569 9.34576 21.1279 9.49976C21.3839 9.64176 21.5549 9.91076 21.5549 10.2198C21.5549 10.5058 21.4089 10.7568 21.1869 10.9038L21.1839 10.9058C19.8859 11.6258 18.1439 10.7928 17.9409 10.7278C17.7869 10.6768 17.6929 10.7378 17.6459 10.9018C17.6079 10.9908 17.5859 11.0948 17.5859 11.2038C17.5859 11.5728 17.8409 11.8828 18.1849 11.9648L18.1899 11.9658C18.7209 12.1788 19.3359 12.3018 19.9799 12.3018C20.5259 12.3018 21.0519 12.2128 21.5429 12.0488L21.5079 12.0588L21.5109 12.0598ZM13.8769 19.6848C16.3749 19.4168 18.6429 18.6328 20.6399 17.4408L20.5639 17.4828C20.9389 17.2628 21.2899 17.0028 21.6459 16.7468C21.9879 16.5068 21.7959 15.8848 21.1159 16.1748C18.7719 17.2038 16.0499 17.8618 13.1909 17.9958L13.1399 17.9978C12.8399 18.0128 12.4889 18.0208 12.1359 18.0208C10.9839 18.0208 9.85195 17.9328 8.74695 17.7628L8.86995 17.7788C5.75295 17.3298 2.94595 16.3208 0.440949 14.8518L0.549949 14.9108C0.461949 14.8518 0.360949 14.8038 0.252949 14.7718L0.244949 14.7698C0.0149487 14.7188 -0.116051 14.9898 0.131949 15.2238C3.20095 18.0618 7.32095 19.8018 11.8479 19.8018H11.8619H11.8609C12.5359 19.7638 13.2109 19.7598 13.8759 19.6848H13.8769ZM22.0639 15.3648C22.7579 15.4028 22.9729 15.6418 22.7999 16.3108C22.6219 17.0048 22.3639 17.6798 22.1489 18.3638C22.1069 18.4998 21.9519 18.6588 22.1109 18.7768C22.2849 18.8988 22.4159 18.7298 22.5329 18.6228C22.9879 18.1898 23.3459 17.6608 23.5769 17.0678L23.5869 17.0388C23.8449 16.4748 23.9949 15.8148 23.9949 15.1198C23.9949 15.1038 23.9949 15.0888 23.9949 15.0728V15.0748C23.9849 14.7848 23.9109 14.6618 23.6289 14.5828C23.4049 14.5138 23.1419 14.4608 22.8719 14.4348L22.8559 14.4338C22.6729 14.4108 22.4619 14.3978 22.2469 14.3978C21.4109 14.3978 20.6209 14.5948 19.9199 14.9438L19.9499 14.9298C19.7949 15.0138 19.6609 15.1058 19.5379 15.2098L19.5419 15.2068C19.4909 15.2488 19.3919 15.4548 19.6549 15.4928C19.6789 15.4948 19.7079 15.4958 19.7359 15.4958C19.8049 15.4958 19.8729 15.4898 19.9379 15.4778L19.9309 15.4788C20.4569 15.4038 21.0649 15.3608 21.6819 15.3608C21.8159 15.3608 21.9489 15.3628 22.0819 15.3668H22.0629L22.0639 15.3648Z" fill="white"/>
</g>
<defs>
<clipPath id="clip0_284_49">
<rect width="24" height="24" fill="white"/>
</clipPath>
</defs>
</svg>
