<svg width="63" height="71" viewBox="0 0 63 71" fill="none" xmlns="http://www.w3.org/2000/svg">
<path d="M21.0423 49.6818C19.2359 47.8476 17.8069 45.6728 16.8371 43.2821C15.8673 40.8913 15.3758 38.3316 15.3907 35.7494C15.3842 33.1673 15.8893 30.6098 16.8766 28.2264C17.8638 25.843 19.3134 23.6816 21.1406 21.8685C21.9233 21.1685 22.5558 20.3152 22.9993 19.3606C23.4428 18.4061 23.688 17.3706 23.7199 16.3174C23.7518 15.2642 23.5697 14.2156 23.1848 13.2356C22.7999 12.2557 22.2203 11.3652 21.4814 10.6185C20.7425 9.87182 19.86 9.28475 18.8878 8.89323C17.9155 8.50171 16.8741 8.31397 15.8273 8.34151C14.7805 8.36906 13.7502 8.6113 12.7997 9.05341C11.8491 9.49553 10.9983 10.1282 10.2992 10.9127C3.73285 17.4807 0.0282201 26.4042 0.000160557 35.7203C-0.027899 45.0365 3.62291 53.9824 10.1496 60.5903C10.8464 61.3738 11.6944 62.0062 12.6421 62.4491C13.5897 62.8919 14.6171 63.136 15.6615 63.1663C16.7059 63.1967 17.7455 63.0127 18.717 62.6256C19.6884 62.2385 20.5714 61.6563 21.3119 60.9147C22.0525 60.1731 22.6352 59.2874 23.0245 58.3118C23.4138 57.3362 23.6016 56.291 23.5764 55.2399C23.5511 54.1889 23.3134 53.1541 22.8778 52.1985C22.4421 51.2429 21.8176 50.3866 21.0423 49.6818Z" fill="white"/>
<path d="M21.1402 21.8688C24.8225 18.2009 29.8 16.1516 34.9816 16.1701C40.1631 16.1887 45.126 18.2735 48.7823 21.9678C49.4767 22.7595 50.3246 23.3999 51.274 23.8496C52.2234 24.2994 53.2542 24.5491 54.303 24.5832C55.3518 24.6174 56.3965 24.4353 57.3728 24.0482C58.3492 23.6612 59.2365 23.0773 59.9802 22.3324C60.724 21.5876 61.3085 20.6975 61.6978 19.717C62.0871 18.7365 62.273 17.6862 62.244 16.6307C62.215 15.5753 61.9718 14.5369 61.5292 13.5795C61.0867 12.6221 60.4543 11.7659 59.6707 11.0636C56.451 7.78208 52.6186 5.17294 48.3938 3.38599C44.169 1.59903 39.635 0.669467 35.0522 0.650681C30.4693 0.631896 25.9279 1.52426 21.6888 3.27652C17.4496 5.02878 13.5963 7.60642 10.3501 10.8614C9.56454 11.5578 8.92851 12.4082 8.48091 13.3605C8.03331 14.3128 7.78354 15.347 7.7469 16.3998C7.71026 17.4525 7.88752 18.5018 8.26782 19.4832C8.64813 20.4647 9.22348 21.3578 9.95866 22.1078C10.6939 22.8578 11.5734 23.4489 12.5435 23.8451C13.5136 24.2412 14.5538 24.434 15.6006 24.4116C16.6473 24.3892 17.6784 24.1522 18.6309 23.715C19.5835 23.2778 20.4373 22.6496 21.1402 21.8688Z" fill="#888888"/>
<path d="M48.7354 49.7808C46.9132 51.602 44.7518 53.0436 42.375 54.0231C39.9983 55.0025 37.4528 55.5006 34.8844 55.4888C32.3167 55.4926 29.774 54.981 27.4052 53.9839C25.0365 52.9868 22.8891 51.5242 21.089 49.6818C20.3933 48.8943 19.5452 48.2579 18.5965 47.8117C17.6479 47.3654 16.6187 47.1187 15.572 47.0866C14.5253 47.0545 13.4831 47.2377 12.5092 47.625C11.5353 48.0123 10.6503 48.5955 9.90818 49.3389C9.1661 50.0824 8.58265 50.9704 8.19353 51.9486C7.80442 52.9269 7.61783 53.9747 7.64521 55.028C7.67258 56.0814 7.91334 57.118 8.35273 58.0744C8.79212 59.0308 9.42091 59.887 10.2006 60.5904C13.4259 63.8716 17.2631 66.4801 21.4922 68.2664C25.7213 70.0528 30.2592 70.9817 34.8458 71.0001C39.4323 71.0185 43.9774 70.1259 48.2206 68.3736C52.4637 66.6212 56.3214 64.0435 59.5726 60.7882C60.2909 60.0723 60.862 59.2209 61.2533 58.2829C61.6446 57.3448 61.8485 56.3383 61.8533 55.321C61.858 54.3037 61.6636 53.2953 61.2811 52.3536C60.8986 51.4119 60.3354 50.5552 59.6239 49.8324C58.9123 49.1096 58.0662 48.535 57.1339 48.1412C56.2016 47.7475 55.2014 47.5424 54.1903 47.5376C53.1792 47.5328 52.1771 47.7284 51.2411 48.1133C50.3052 48.4982 49.4537 49.0648 48.7354 49.7808Z" fill="#888888"/>
<path d="M21.1408 21.8682C20.0623 22.9521 18.6881 23.6893 17.1925 23.9863C15.697 24.2832 14.1475 24.1265 12.7406 23.536C11.3337 22.9456 10.1327 21.948 9.29015 20.6698C8.44757 19.3916 8.00127 17.8903 8.00788 16.3565C8.0145 14.8227 8.47372 13.3254 9.32729 12.0546C10.1809 10.7838 11.3903 9.79672 12.8023 9.21857C14.2142 8.64042 15.765 8.49725 17.2579 8.80723C18.7509 9.11721 20.1187 9.86637 21.1878 10.9597C22.6122 12.4162 23.4065 14.3803 23.3977 16.4237C23.3889 18.4671 22.5777 20.4241 21.1408 21.8682Z" fill="#DDDDDD"/>
<path d="M20.9902 60.5901C19.9112 61.6736 18.5368 62.4102 17.0411 62.7066C15.5454 63.0029 13.996 62.8456 12.5893 62.2546C11.1826 61.6636 9.98212 60.6655 9.14004 59.3869C8.29795 58.1084 7.85225 56.607 7.85946 55.0732C7.86667 53.5394 8.32648 52.0423 9.18055 50.7718C10.0346 49.5014 11.2445 48.5147 12.6566 47.9371C14.0688 47.3596 15.6197 47.217 17.1125 47.5276C18.6053 47.8381 19.9728 48.5878 21.0415 49.6816C22.4653 51.1387 23.2589 53.1031 23.2493 55.1465C23.2397 57.1899 22.4276 59.1466 20.9902 60.5901Z" fill="#DDDDDD"/>
</svg>
