<svg width="43" height="42" viewBox="0 0 43 42" fill="none" xmlns="http://www.w3.org/2000/svg">
<path d="M15.5596 28.2216C16.0952 28.8657 16.8006 29.3183 17.432 29.8514C19.7116 31.7794 21.9738 33.7335 24.519 35.3155C26.3196 36.4362 28.1877 37.4219 30.2627 37.9463C33.4284 38.7493 36.5876 38.832 39.712 37.7527C41.1969 37.2391 42.2812 38.4773 42.1462 39.4979C42.0526 40.2203 41.6694 40.7186 41.0075 40.9537C39.3985 41.526 37.7285 41.835 36.0303 41.9525C31.36 42.2723 27.1318 40.921 23.1822 38.5208C20.4628 36.8692 18.0504 34.8194 15.6053 32.8087C15.1503 32.4344 14.7845 31.9339 14.1879 31.7446C13.7546 31.1745 13.1428 30.8045 12.5898 30.3759C12.2109 30.0821 11.8561 29.7339 11.3814 29.5816C11.3183 29.4967 11.2725 29.3858 11.1898 29.3292C9.77676 28.3521 8.30711 27.5448 6.49562 27.6275C5.22627 27.6863 3.90903 28.5175 3.53236 29.6382C3.06425 31.0243 3.39301 32.2168 4.4381 33.2352C5.25676 34.0316 6.26048 34.1165 7.31427 34.0686C7.24896 35.3111 7.71054 36.3578 8.51395 37.2783C6.28443 37.8615 4.23997 37.4937 2.43066 36.0445C1.33985 35.1697 0.558213 34.0382 0.244686 32.6846C-0.523889 29.377 0.477654 26.2131 4.03966 24.7051C6.22782 23.7781 8.38984 24.024 10.4996 24.9923C11.2225 25.3231 11.9192 25.7126 12.6268 26.0738C13.5326 26.8898 14.5515 27.5492 15.5618 28.2194L15.5596 28.2216Z" fill="#878787"/>
<path d="M15.558 28.2216C14.5478 27.5492 13.5266 26.8899 12.623 26.076C13.3241 23.7912 13.7879 21.4563 14.2016 19.1061C14.4955 17.4371 14.796 15.7681 14.9353 14.0838C15.0921 12.2167 15.4034 10.3671 15.4687 8.49134C15.5471 6.20213 15.6995 3.91727 15.7779 1.62806C15.8019 0.944783 16.1154 0.444291 16.6575 0.196221C17.2868 -0.093194 17.9835 -0.0910179 18.5648 0.433411C18.9371 0.770699 19.1331 1.19938 19.1701 1.68464C19.2028 2.1155 19.181 2.55289 19.157 2.98592C19.022 5.47533 18.9633 7.97126 18.7085 10.4476C18.5496 11.9774 18.5322 13.5289 18.2252 15.0369C17.9225 16.521 17.818 18.029 17.5807 19.5196C17.1256 22.3637 16.4442 25.1468 15.6712 27.9148C15.6429 28.0192 15.5972 28.1193 15.558 28.2194V28.2216Z" fill="#FEFFFF"/>
<path d="M8.51243 37.2778C7.70902 36.3595 7.24744 35.3128 7.31276 34.0681C8.38615 33.77 9.21351 33.1585 9.86887 32.2445C10.472 31.4046 10.8835 30.4711 11.3799 29.5811C11.8545 29.7356 12.2116 30.0837 12.5883 30.3753C13.1413 30.804 13.7531 31.1739 14.1864 31.7441C13.7792 32.4186 13.3939 33.1084 12.9628 33.7678C11.9351 35.3389 10.5634 36.5118 8.82378 37.2429C8.7171 37.2886 8.61694 37.2908 8.51026 37.2778H8.51243Z" fill="#FEFFFF"/>
</svg>
