<svg width="132" height="48" viewBox="0 0 132 48" fill="none" xmlns="http://www.w3.org/2000/svg">
<rect width="132" height="48" fill="white"/>
<path d="M82.4766 14.0088H99.8948V17.2237H92.9852V34.1372H89.5301V17.2237H82.4766V14.0088Z" fill="black"/>
<path d="M53.8303 14.0088V17.2237H39.8684V22.3956H51.0966V25.6106H39.8684V30.9223H53.8303V34.1372H36.4136V17.2237H36.4121V14.0088H53.8303Z" fill="black"/>
<path d="M62.5272 14.0166H58.0059L74.2003 34.145H78.7348L70.6366 24.0877L78.7219 14.032L74.2003 14.0389L68.3729 21.2764L62.5272 14.0166Z" fill="black"/>
<path d="M67.168 28.3943L64.9038 25.5791L57.9941 34.1602H62.5284L67.168 28.3943Z" fill="black"/>
<path fill-rule="evenodd" clip-rule="evenodd" d="M36.5348 34.1368L20.3186 14H16V34.1284H19.4548V18.3024L32.1946 34.1368H36.5348Z" fill="black"/>
<path d="M100.671 34.0143C100.418 34.0143 100.203 33.9267 100.023 33.7514C99.8427 33.5761 99.7536 33.3639 99.7559 33.1124C99.7536 32.8679 99.8427 32.658 100.023 32.4827C100.203 32.3074 100.418 32.2197 100.671 32.2197C100.915 32.2197 101.128 32.3074 101.308 32.4827C101.491 32.658 101.582 32.8679 101.584 33.1124C101.582 33.2785 101.54 33.4307 101.455 33.5668C101.369 33.7053 101.259 33.8137 101.121 33.8921C100.985 33.9728 100.835 34.0143 100.671 34.0143Z" fill="black"/>
<path d="M106.568 25.5342H108.099V31.4325C108.097 31.9746 107.98 32.4382 107.751 32.8281C107.519 33.2179 107.198 33.5154 106.786 33.7254C106.377 33.9329 105.897 34.0391 105.351 34.0391C104.852 34.0391 104.406 33.9491 104.008 33.7738C103.61 33.5985 103.294 33.3355 103.062 32.9895C102.828 32.6435 102.713 32.2122 102.713 31.6955H104.246C104.249 31.9215 104.3 32.1176 104.398 32.2813C104.497 32.4451 104.632 32.5697 104.806 32.6573C104.981 32.745 105.183 32.7888 105.41 32.7888C105.656 32.7888 105.866 32.7381 106.037 32.6343C106.208 32.5328 106.339 32.3805 106.43 32.1775C106.519 31.9769 106.566 31.7277 106.568 31.4325V25.5342Z" fill="black"/>
<path d="M114.399 27.8406C114.362 27.4831 114.198 27.204 113.912 27.0056C113.624 26.8049 113.252 26.7057 112.795 26.7057C112.475 26.7057 112.199 26.7542 111.969 26.8488C111.74 26.9456 111.562 27.0748 111.44 27.2386C111.319 27.4024 111.258 27.5892 111.253 27.7991C111.253 27.9745 111.295 28.1267 111.377 28.2536C111.459 28.3827 111.569 28.4912 111.712 28.5788C111.852 28.6688 112.009 28.7426 112.18 28.8025C112.353 28.8625 112.526 28.9133 112.7 28.9548L113.498 29.1509C113.819 29.2247 114.13 29.3239 114.427 29.4507C114.724 29.5753 114.994 29.7345 115.23 29.9259C115.467 30.1174 115.654 30.3481 115.792 30.618C115.93 30.8878 116 31.2038 116 31.5683C116 32.0596 115.874 32.491 115.619 32.8647C115.364 33.2361 114.996 33.5267 114.514 33.7366C114.034 33.9443 113.453 34.0503 112.77 34.0503C112.11 34.0503 111.534 33.9489 111.049 33.7459C110.562 33.5452 110.183 33.2499 109.909 32.8624C109.635 32.4749 109.488 32.002 109.467 31.4461H110.984C111.005 31.7367 111.099 31.9789 111.258 32.175C111.419 32.3687 111.63 32.5118 111.887 32.6086C112.147 32.7032 112.437 32.7517 112.758 32.7517C113.093 32.7517 113.388 32.7009 113.643 32.6017C113.896 32.5025 114.095 32.3641 114.238 32.1842C114.383 32.0066 114.455 31.7967 114.458 31.5568C114.455 31.3377 114.39 31.1554 114.263 31.0124C114.135 30.8694 113.957 30.7494 113.729 30.6526C113.5 30.5557 113.233 30.468 112.929 30.3919L111.96 30.1474C111.26 29.9698 110.705 29.6999 110.3 29.3377C109.893 28.9756 109.691 28.4958 109.691 27.8937C109.691 27.4001 109.827 26.9664 110.101 26.595C110.373 26.2237 110.745 25.9353 111.216 25.73C111.688 25.5224 112.222 25.4209 112.817 25.4209C113.421 25.4209 113.95 25.5224 114.406 25.73C114.862 25.9353 115.221 26.2214 115.481 26.5858C115.74 26.9503 115.876 27.3678 115.883 27.8406H114.399Z" fill="black"/>
</svg>
