<svg width="39" height="40" viewBox="0 0 39 40" fill="none" xmlns="http://www.w3.org/2000/svg">
<path d="M38.5734 24.538C38.5505 24.4682 38.519 24.4015 38.4795 24.3395C38.2479 23.9008 37.6849 23.7698 36.8005 23.9527C34.045 24.5212 32.978 24.1713 32.5912 23.9208C34.8279 20.5072 36.6662 16.3842 37.6597 12.538C38.112 10.7868 38.99 6.66517 37.8634 4.652C37.7914 4.51421 37.7072 4.38313 37.6119 4.26034C35.4629 1.51434 32.3089 0.0413357 28.4909 0.000835672C25.9997 -0.0254977 23.8734 0.577669 23.2974 0.799836C23.0121 0.746588 22.7253 0.701237 22.4375 0.663836C21.716 0.533186 20.985 0.461947 20.2519 0.450836C18.2815 0.420169 16.5789 0.891169 15.1689 1.85184C13.74 1.31667 7.18753 -0.889831 3.13236 1.98317C0.867529 3.58767 -0.177971 6.4555 0.0246959 10.5072C0.0928626 11.8705 0.869529 16.0638 2.0952 20.0798C2.86153 22.5907 3.6597 24.583 4.4842 26.0498C5.40586 27.7068 6.3607 28.7053 7.34136 29.0323C8.08703 29.2808 9.2292 29.2725 10.4382 27.8192C11.7735 26.2133 13.0887 24.7762 13.6792 24.141C14.4044 24.5335 15.1899 24.7452 15.9959 24.7697C15.996 24.772 15.9962 24.7742 15.9965 24.7765C15.8562 24.9437 15.7188 25.1134 15.5845 25.2855C15.0197 26.0025 14.9022 26.1517 13.0842 26.526C12.5672 26.6327 11.1935 26.9158 11.1735 27.8785C11.1694 28.0825 11.2284 28.2633 11.3267 28.4232C11.7049 29.1283 12.8627 29.4393 13.0184 29.4783C15.2425 30.0342 17.1924 29.6317 18.6374 28.3472C18.609 32.0655 18.7665 35.7095 19.213 36.8262C19.5817 37.7477 20.4827 40.0003 23.3284 40C23.7459 40 24.2055 39.9515 24.711 39.8432C27.6809 39.2063 28.9705 37.8938 29.4694 35C29.7199 33.5488 30.1387 30.2078 30.3674 28.1647C30.3955 28.0475 30.4269 27.9635 30.4624 27.9377C30.4635 27.9368 30.5785 27.8592 31.1744 27.9888C31.1987 27.9941 31.2234 27.9979 31.2482 28.0002L31.6714 28.0373L31.6962 28.039C33.1075 28.103 34.8819 27.8013 35.9149 27.321C36.9879 26.823 38.9244 25.6005 38.5734 24.538ZM3.25936 19.7942C2.0202 15.7345 1.2962 11.6523 1.23886 10.5077C1.05786 6.88867 1.93403 4.3695 3.8427 3.01984C6.90386 0.855502 11.909 2.1185 14.0227 2.80317C14.0174 2.8085 14.0117 2.81334 14.0064 2.81884C10.6334 6.2255 10.7134 12.0455 10.7217 12.4013C10.7214 12.5385 10.7327 12.7328 10.7487 13.0002C10.8067 13.979 10.9147 15.8008 10.6262 17.8642C10.358 19.7815 10.949 21.6582 12.2475 23.0128C12.3819 23.153 12.5222 23.2847 12.6672 23.4085C12.0892 24.0275 10.8332 25.3962 9.49636 27.0045C8.5502 28.142 7.89686 27.924 7.68203 27.8523C7.02886 27.6345 6.32703 26.8738 5.61853 25.6485C4.8192 24.2502 4.0127 22.2623 3.25936 19.7942ZM13.2714 28.2727C12.9862 28.2013 12.7262 28.084 12.551 27.9773C12.6992 27.9117 12.9467 27.827 13.3565 27.7425C15.4954 27.3023 15.8257 26.9915 16.547 26.0755C16.7124 25.8655 16.8997 25.6277 17.1592 25.3378C17.215 25.2752 17.2569 25.2015 17.282 25.1215C17.5667 24.8693 17.736 24.9383 18.0102 25.052C18.2702 25.1597 18.5232 25.4853 18.626 25.844C18.6745 26.0133 18.7292 26.3348 18.5507 26.5847C17.0435 28.6943 14.848 28.667 13.2714 28.2727ZM16.7614 21.626L16.6739 21.861C16.4522 22.4553 16.246 23.0078 16.1182 23.5327C15.0059 23.5292 13.9235 23.054 13.1007 22.1953C12.0542 21.1035 11.5789 19.5847 11.7965 18.028C12.1012 15.8482 11.9887 13.95 11.9282 12.9303C11.9199 12.7875 11.9124 12.6625 11.9079 12.5638C12.4007 12.127 14.6844 10.9035 16.3127 11.2765C17.0559 11.4468 17.5087 11.9527 17.6969 12.8232C18.6712 17.3295 17.8259 19.2077 17.1465 20.717C17.0065 21.028 16.8744 21.3218 16.7614 21.626ZM29.0342 29.2468C29.006 29.5415 28.9745 29.8735 28.9312 30.24L28.6879 30.9705C28.6685 31.0284 28.6583 31.089 28.6575 31.15C28.6477 31.9412 28.5675 32.2315 28.4659 32.5988C28.3602 32.9808 28.2404 33.414 28.1669 34.3613C27.9835 36.7185 26.7032 38.0725 24.1382 38.6222C21.6124 39.164 21.1644 37.7942 20.7695 36.586C20.7291 36.4593 20.6864 36.3334 20.6414 36.2083C20.2824 35.232 20.3229 33.8552 20.379 31.9498C20.4065 31.0145 20.3375 28.781 19.8287 27.5395C19.836 27.0508 19.8464 26.5547 19.8604 26.0532C19.8621 25.9896 19.8534 25.9263 19.8349 25.8655C19.8187 25.7484 19.7943 25.6325 19.7617 25.5188C19.5574 24.805 19.0595 24.2078 18.4622 23.9603C18.2249 23.862 17.7892 23.6817 17.2659 23.8155C17.3775 23.3555 17.571 22.8363 17.7809 22.274L17.869 22.0373C17.9682 21.7707 18.0924 21.4945 18.224 21.202C18.9349 19.6227 19.9084 17.4598 18.8517 12.5733C18.456 10.7432 17.1344 9.8495 15.131 10.057C13.9299 10.1813 12.8312 10.666 12.283 10.9438C12.1731 10.9995 12.0643 11.0574 11.9567 11.1173C12.1097 9.27334 12.6877 5.82717 14.8495 3.64684C15.0101 3.48502 15.1788 3.33149 15.355 3.18684C15.4425 3.16978 15.525 3.13308 15.5962 3.0795C16.8502 2.1285 18.4204 1.66184 20.2662 1.692C20.948 1.70317 21.6024 1.7485 22.2232 1.827C25.4549 2.41767 27.6297 4.23834 28.9497 5.79817C30.3069 7.402 31.0417 9.01733 31.335 9.88867C29.1297 9.66433 27.6294 10.1 26.8689 11.187C25.2145 13.5518 27.7739 18.1418 29.004 20.3477C29.2295 20.752 29.4244 21.1013 29.4855 21.2498C29.886 22.2207 30.4047 22.8687 30.7834 23.3418C30.8994 23.4868 31.012 23.6275 31.0975 23.7502C30.4295 23.9427 29.2295 24.3877 29.3389 26.6118C29.3184 26.8723 29.2684 27.3567 29.1999 27.9698C29.123 28.316 29.0829 28.737 29.0342 29.2468ZM30.5184 26.545C30.4509 25.159 30.9669 25.0142 31.5129 24.8608C31.5884 24.8401 31.6634 24.8176 31.7379 24.7932C31.8083 24.8556 31.883 24.9129 31.9615 24.9648C32.912 25.5923 34.5987 25.667 36.9729 25.1888C36.6369 25.4837 36.108 25.8545 35.384 26.1907C34.701 26.5078 33.5579 26.7457 32.4719 26.7967C31.2724 26.8527 30.662 26.6622 30.5184 26.545ZM31.4675 11.093C31.4577 11.6777 31.3772 12.2083 31.2919 12.7625C31.2002 13.3585 31.1052 13.9748 31.0812 14.7228C31.0575 15.4508 31.1485 16.2077 31.2365 16.9397C31.4142 18.418 31.5965 19.9402 30.8907 21.442C30.7735 21.2343 30.6691 21.0197 30.578 20.7993C30.4902 20.5867 30.2999 20.245 30.0362 19.7723C29.0102 17.9322 26.6072 13.623 27.8374 11.8647C28.4699 10.9602 30.072 10.9212 31.4675 11.093ZM31.8482 22.7825C31.8011 22.7226 31.7537 22.6629 31.706 22.6035L31.6469 22.5295C32.8572 20.5303 32.6205 18.5525 32.4099 16.7987C32.3234 16.079 32.2417 15.3993 32.2624 14.761C32.2839 14.0842 32.3734 13.5038 32.4599 12.9425C32.5664 12.2508 32.6745 11.5353 32.6447 10.6917C32.667 10.6032 32.676 10.4987 32.6644 10.3747C32.5882 9.5655 31.6645 7.14467 29.782 4.953C28.7694 3.77417 27.2994 2.45767 25.3005 1.55384C26.1757 1.37617 27.3552 1.21467 28.6745 1.244C32.0937 1.32 34.7989 2.59984 36.7149 5.048C36.7556 5.10115 36.7927 5.15694 36.826 5.215C38.0312 7.47433 36.3657 15.6735 31.8482 22.7825ZM17.1539 12.5888C17.1122 12.8878 16.639 13.293 16.1187 13.293C16.0736 13.293 16.0285 13.2899 15.9839 13.2837C15.6717 13.2403 15.3564 13.0437 15.1407 12.7577C15.0644 12.6568 14.9402 12.461 14.9649 12.2837C14.974 12.2168 15.0084 12.1195 15.119 12.0357C15.316 11.8867 15.7054 11.8313 16.135 11.8912C16.6622 11.9647 17.206 12.2142 17.1539 12.5888ZM30.3714 11.9032C30.3899 12.0352 30.2897 12.2382 30.1162 12.4202C30.0024 12.5397 29.7629 12.747 29.4364 12.7922C29.3949 12.7979 29.3532 12.8008 29.3114 12.8008C28.8222 12.8008 28.409 12.4102 28.3769 12.1813C28.3369 11.8872 28.817 11.6637 29.312 11.5947C29.807 11.5257 30.3305 11.6093 30.3714 11.9032Z" fill="white"/>
</svg>
