<svg width="24" height="22" viewBox="0 0 24 22" fill="none" xmlns="http://www.w3.org/2000/svg">
<path d="M12.1737 12.3256C13.1456 12.3256 13.9335 11.5378 13.9335 10.5659C13.9335 9.59396 13.1456 8.80607 12.1737 8.80607C11.2018 8.80607 10.4139 9.59396 10.4139 10.5659C10.4139 11.5378 11.2018 12.3256 12.1737 12.3256Z" fill="white"/>
<path d="M12.1737 12.3256C13.1456 12.3256 13.9335 11.5378 13.9335 10.5659C13.9335 9.59396 13.1456 8.80607 12.1737 8.80607C11.2018 8.80607 10.4139 9.59396 10.4139 10.5659C10.4139 11.5378 11.2018 12.3256 12.1737 12.3256Z" stroke="white"/>
<path d="M12.1733 15.5943C18.3441 15.5943 23.3465 13.3432 23.3465 10.5663C23.3465 7.78943 18.3441 5.53833 12.1733 5.53833C6.00244 5.53833 1 7.78943 1 10.5663C1 13.3432 6.00244 15.5943 12.1733 15.5943Z" stroke="white"/>
<path d="M7.81821 13.0804C10.9036 18.4245 15.3543 21.6312 17.7592 20.2427C20.164 18.8543 19.6123 13.3965 16.5269 8.05242C13.4415 2.70834 8.99076 -0.498354 6.58592 0.890081C4.18109 2.27852 4.7328 7.7363 7.81821 13.0804Z" stroke="white"/>
<path d="M7.81821 8.05242C4.7328 13.3965 4.18109 18.8543 6.58593 20.2427C8.99076 21.6312 13.4415 18.4245 16.5269 13.0804C19.6123 7.7363 20.164 2.27852 17.7592 0.890081C15.3543 -0.498353 10.9036 2.70834 7.81821 8.05242Z" stroke="white"/>
</svg>
