<svg width="84" height="79" viewBox="0 0 84 79" fill="none" xmlns="http://www.w3.org/2000/svg">
<path d="M9.05835 15.5188C8.72577 15.5905 8.45655 15.7653 8.22539 16.0797C7.9871 16.421 7.90261 16.9828 8.02503 17.3536C8.1284 17.678 8.69267 18.3353 9.31135 18.7822C8.69584 19.5852 7.51229 21.2023 6.9403 22.0312C2.78291 28.0536 0.345499 33.5634 0.0359684 37.536C-0.131361 39.6835 0.285757 41.185 1.27431 42.3523C2.00551 43.2126 2.86136 43.7017 4.24015 43.995C5.37132 44.2355 7.10262 44.2242 8.84972 43.9576C7.75134 45.5329 6.18285 47.9487 5.37445 49.3239C4.03962 51.6081 2.67255 54.5267 2.15876 56.197C1.25397 59.1084 1.13794 61.4998 1.74063 63.7811C2.10879 65.1827 2.70224 66.3077 3.50871 67.1716C4.3299 68.0512 5.37408 68.6657 6.65081 69.0119C8.74256 69.5777 11.813 69.4169 15.6905 68.5038C16.5075 68.3134 17.7617 67.9636 18.697 67.686C17.863 70.6032 17.9561 73.267 18.892 75.1783C19.1947 75.7929 20.0405 76.8294 20.5464 77.2106C23.5706 79.4682 29.9287 79.3838 38.4605 76.7082C39.1437 76.4951 41.0726 75.8281 42.0335 75.4789C42.6899 76.356 43.302 76.7014 44.7209 76.8719C45.6442 76.9723 46.4018 76.824 47.1193 76.411C47.4471 76.2209 47.6403 76.0342 47.7502 75.8597C47.929 75.5759 47.9623 75.2836 47.8385 74.9341C47.7198 74.6069 47.5484 74.4119 47.2411 74.2738C47.0648 74.1946 46.806 74.1375 46.3866 74.1061C46.059 74.0841 45.9435 74.0712 45.7692 73.9474L45.8235 73.9019C47.317 73.2703 50.5419 71.6592 52.5319 70.5501C59.8103 66.4899 67.5874 60.7676 72.7666 55.6583C77.4598 51.0337 82.0081 45.2622 82.9476 42.7898C83.2324 42.0486 83.3104 41.2784 83.1902 40.6788C83.0887 40.2104 83.0326 40.083 82.5806 39.5442C82.1026 38.9746 82.0026 38.9211 81.5617 38.7465C80.0943 38.1692 77.8271 38.8053 73.3598 41.5339C67.6448 45.0231 59.1639 51.5017 53.1881 56.9514C47.302 62.3138 43.4354 67.0003 42.0014 70.4384C41.8289 70.8532 41.8339 71.0465 41.7439 71.0953C41.6519 71.1466 40.8567 71.4565 39.9826 71.8003C35.1649 73.6703 30.967 74.7428 27.831 74.8805C26.9662 74.9199 25.5853 74.8265 24.9031 74.6793C24.3311 74.5574 23.6282 74.28 23.3621 74.0274C23.0305 73.7188 22.9005 73.2013 22.8779 72.5499C22.8493 71.7283 23.0148 70.7026 23.3618 69.5101C23.5987 68.7043 24.4319 66.6217 24.8474 65.8122L25.8229 65.2866C31.0786 63.2986 37.0263 60.4207 42.5968 57.1712C50.1209 52.7811 58.781 46.6942 66.5355 40.3296C71.1558 36.5368 73.6403 34.1452 75.9954 31.235C77.8342 28.9633 79.3236 26.4045 79.6627 24.9785C79.9082 23.9653 79.8756 23.0575 79.6071 22.2923C79.3242 21.4858 78.7818 20.8251 77.9858 20.3584C75.9128 19.1436 72.1565 19.6225 67.0798 21.9117C62.2787 24.0766 56.2768 27.8079 49.4968 32.9223C45.4452 35.9705 39.7732 40.6885 36.7758 43.4966C29.1263 50.6716 23.8862 56.9115 20.98 62.2834L20.783 62.6503C18.212 63.6174 14.2417 64.7395 12.2532 65.0777C10.5954 65.3552 8.99566 65.4293 8.0556 65.2441C7.47399 65.131 7.03116 64.9459 6.70619 64.6119C6.36878 64.2651 6.16379 63.7734 6.01377 63.118C5.78466 62.0917 5.85291 60.4041 6.15881 59.1551C7.10474 55.3035 10.2238 49.7732 14.9847 43.4285L16.0178 42.0559L17.084 41.6435C24.1385 38.9348 32.8968 34.0618 40.6643 28.5165C44.9697 25.4406 49.5986 21.6226 52.7441 18.5472C55.2432 16.1046 57.2411 13.8534 58.7847 11.7485C60.1442 9.88603 60.9994 8.31299 61.3844 6.97718C61.8136 5.48791 61.6793 4.26609 61.063 3.2333C60.5919 2.44405 59.8768 1.91354 58.9704 1.66614C58.1417 1.43995 57.1404 1.45585 56.0187 1.75605C52.763 2.63768 47.9104 5.55023 40.9748 10.8372C39.25 12.159 33.562 16.9317 31.8635 18.4826C24.7776 24.9803 18.5002 31.6198 13.1828 38.231L12.1779 39.4829L11.614 39.6502C9.977 40.1329 8.09754 40.4893 6.7667 40.5696C5.98803 40.6162 4.95725 40.5079 4.50858 40.3039C4.27151 40.199 4.23381 40.1705 4.09553 39.9824C3.85236 39.647 3.79524 39.3257 3.77579 38.6837C3.67557 35.8794 5.61773 31.1362 8.84168 26.1072C10.0708 24.1923 11.4859 22.2287 12.9926 20.345L13.7214 19.4332C16.0326 18.7165 18.326 17.2608 21.7795 14.3631C25.7459 11.0264 29.624 6.82627 30.7011 5.37979C31.9593 3.69032 32.4408 2.01072 32.231 1.34866C32.0889 0.925553 31.8121 0.573818 31.4671 0.335903C31.1057 0.0866683 30.6746 -0.0347253 30.2615 0.00865004C29.6525 0.0705662 28.2568 0.81644 26.4019 2.16516C25.089 3.1156 21.4452 6.12198 19.8498 7.56982C16.9405 10.2039 15.0207 12.1338 12.6221 14.8258L11.8648 15.673C11.2127 15.8091 10.604 15.7552 10.0755 15.5986C9.65258 15.4761 9.32555 15.4611 9.05835 15.5188ZM38.0335 19.1005C40.0518 17.3488 40.9027 16.6433 43.6743 14.4089C47.022 11.7156 50.7052 9.16004 53.4051 7.65448C54.7283 6.91493 55.967 6.33029 56.9321 6.13694C56.7095 6.60369 56.3671 7.19019 55.9977 7.74854C54.2001 10.4436 51.4638 13.5095 47.3596 17.4315C46.1211 18.6199 39.9385 23.799 38.3961 24.9524C33.1967 28.8262 28.4015 31.9138 23.4716 34.5499C22.8437 34.8845 22.0926 35.2718 21.3687 35.6373C26.4806 29.855 32.2559 24.1237 38.0335 19.1005ZM63.8582 28.8487C69.0675 25.7012 73.5155 23.8596 75.6249 23.7601C75.5768 23.9378 75.502 24.1566 75.4185 24.3502C74.5957 26.296 72.2831 29.1305 68.984 32.289C67.6258 33.586 62.3213 38.011 59.8498 39.9108C48.0135 48.9825 38.2985 55.093 28.8518 59.3757C30.5072 57.1367 32.8329 54.3824 35.0326 52.0742C39.1653 47.7354 44.2329 43.1433 49.2983 39.1501C54.9317 34.7052 59.4346 31.5233 63.8582 28.8487ZM67.002 51.6301C70.8695 48.6042 74.3264 46.1799 76.8788 44.689C76.6363 45.0157 76.3867 45.3434 76.1511 45.6417C72.0785 50.8035 67.2101 55.4322 61.1317 59.9043C57.5645 62.527 53.8691 64.9214 50.2769 66.9295C52.3457 64.5498 54.9656 61.945 58.5323 58.712C59.4609 57.8663 65.7708 52.5885 67.002 51.6301Z" fill="white"/>
<path d="M38.5218 63.221C50.9817 63.221 61.0826 53.1008 61.0826 40.6169C61.0826 28.1329 50.9817 18.0127 38.5218 18.0127C26.0618 18.0127 15.9609 28.1329 15.9609 40.6169C15.9609 53.1008 26.0618 63.221 38.5218 63.221Z" fill="black"/>
<path fill-rule="evenodd" clip-rule="evenodd" d="M1.27426 42.3747C0.285759 41.2074 -0.131341 39.7059 0.0359588 37.5584L3.77576 38.7061C3.79526 39.3481 3.85236 39.6694 4.09556 40.0048C4.23386 40.1929 4.27146 40.2214 4.50856 40.3263C4.95726 40.5302 5.98806 40.6386 6.76666 40.592C8.09756 40.5117 11.614 39.6726 11.614 39.6726L21.3688 35.6597C21.3688 35.6597 22.8437 34.9069 23.4716 34.5722C28.4015 31.9361 33.1967 28.8486 38.3961 24.9748C39.9385 23.8214 46.1211 18.6423 47.3597 17.4539C51.4638 13.5319 54.2001 10.466 55.9977 7.77086C56.3671 7.21256 56.5883 6.63376 56.9321 6.15926L58.9705 1.68848C59.8603 1.91846 60.592 2.46636 61.063 3.25566C61.6793 4.28846 61.8137 5.51026 61.3844 6.99956C60.9994 8.33536 60.1442 9.90836 58.7848 11.7709C57.2411 13.8758 55.2432 16.127 52.7441 18.5696C49.5986 21.645 44.9697 25.463 40.6643 28.5389C32.8968 34.0842 24.1385 38.9572 17.084 41.6659L16.0178 42.0783L12.2614 43.2128L8.84976 43.98C7.10266 44.2466 5.37126 44.2579 4.24016 44.0174C2.86136 43.7241 2.00546 43.235 1.27426 42.3747Z" fill="white"/>
<path fill-rule="evenodd" clip-rule="evenodd" d="M3.50866 67.194C2.70226 66.3301 2.10876 65.205 1.74066 63.8035L6.01376 63.1404C6.16376 63.7958 6.36876 64.2874 6.70616 64.6343C7.03116 64.9683 7.47396 65.1534 8.05556 65.2665C8.99566 65.4517 10.5954 65.3776 12.2533 65.1001C14.2418 64.7619 18.212 63.6398 20.783 62.6726L28.8518 59.3981C38.2985 55.1154 48.0136 49.0049 59.8498 39.9332C62.3213 38.0334 67.6258 33.6084 68.984 32.3114C72.2831 29.1529 74.5957 26.3184 75.4185 24.3726C75.502 24.179 75.5768 23.9601 75.625 23.7825L77.9858 20.3808C78.7818 20.8475 79.3242 21.5082 79.6072 22.3147C79.8756 23.0799 79.9082 23.9876 79.6628 25.0008C79.3236 26.4269 77.8343 28.9857 75.9954 31.2574C73.6403 34.1676 71.1558 36.5592 66.5355 40.352C58.781 46.7166 50.1209 52.8035 42.5968 57.1936C37.0263 60.443 31.0786 63.321 25.8229 65.309L24.8474 65.8345L18.6971 67.7084C17.7617 67.9859 16.5075 68.3358 15.6905 68.5262C11.813 69.4393 8.74256 69.6001 6.65076 69.0343C5.37406 68.6881 4.32986 68.0736 3.50866 67.194Z" fill="white"/>
<path fill-rule="evenodd" clip-rule="evenodd" d="M38.4605 76.7306C29.9288 79.4062 23.5707 79.4906 20.5465 77.233L23.3621 74.0497C23.6283 74.3024 24.3311 74.5798 24.9031 74.7017C25.5854 74.8489 26.9663 74.9423 27.831 74.9029C30.967 74.7652 35.1649 73.6927 39.9827 71.8227C40.8567 71.4789 41.652 71.169 41.744 71.1177L50.277 66.9518C53.8692 64.9438 57.5645 62.5494 61.1317 59.9267C67.2101 55.4546 72.0785 50.8259 76.1511 45.6641C76.3867 45.3658 76.6364 45.0381 76.8788 44.7114L81.5617 38.7689C82.0027 38.9435 82.1027 38.997 82.5806 39.5666C83.0326 40.1053 83.0887 40.2327 83.1903 40.7012C83.3105 41.3008 83.2324 42.071 82.9477 42.8122C82.0082 45.2845 77.4599 51.056 72.7667 55.6807C67.5875 60.79 59.8104 66.5123 52.5319 70.5725C50.5419 71.6816 47.317 73.2927 45.8235 73.9243L45.7692 73.9698L42.0335 75.5013C41.0726 75.8505 39.1437 76.5175 38.4605 76.7306Z" fill="white"/>
</svg>
