<svg width="40" height="40" viewBox="0 0 40 40" fill="none" xmlns="http://www.w3.org/2000/svg">
<g clip-path="url(#clip0_284_12)">
<path d="M15.3633 22.6504L17.732 32.0816" stroke="white" stroke-width="1.5" stroke-miterlimit="10"/>
<path d="M24.7195 25.3004L15.3633 22.6504" stroke="white" stroke-width="1.5" stroke-miterlimit="10"/>
<path d="M17.7324 32.0811L24.7199 25.2998" stroke="white" stroke-width="1.5" stroke-miterlimit="10"/>
<path d="M17.7313 32.0816L8.375 29.4316" stroke="white" stroke-width="1.5" stroke-miterlimit="10"/>
<path d="M8.375 29.4316L10.7437 38.8691L17.7313 32.0816" stroke="white" stroke-width="1.5" stroke-miterlimit="10"/>
<path d="M8.375 29.4316L15.3625 22.6504" stroke="white" stroke-width="1.5" stroke-miterlimit="10"/>
<path d="M15.3633 22.6498L22.357 15.8623" stroke="white" stroke-width="1.5" stroke-miterlimit="10"/>
<path d="M22.3574 15.8623L29.3449 9.08105" stroke="white" stroke-width="1.5" stroke-miterlimit="10"/>
<path d="M19.9883 6.43164L22.357 15.8629" stroke="white" stroke-width="1.5" stroke-miterlimit="10"/>
<path d="M22.3566 15.8625L12.9941 13.2188" stroke="white" stroke-width="1.5" stroke-miterlimit="10"/>
<path d="M12.9941 13.2188L15.3629 22.65" stroke="white" stroke-width="1.5" stroke-miterlimit="10"/>
<path d="M15.3621 22.65L6.00586 20" stroke="white" stroke-width="1.5" stroke-miterlimit="10"/>
<path d="M6.00586 20L8.37461 29.4312" stroke="white" stroke-width="1.5" stroke-miterlimit="10"/>
<path d="M3.63867 10.5693L6.00742 20.0006" stroke="white" stroke-width="1.5" stroke-miterlimit="10"/>
<path d="M12.9949 13.2193L3.63867 10.5693" stroke="white" stroke-width="1.5" stroke-miterlimit="10"/>
<path d="M6.00586 20L12.9934 13.2188" stroke="white" stroke-width="1.5" stroke-miterlimit="10"/>
<path d="M12.9941 13.2129L19.9879 6.43164" stroke="white" stroke-width="1.5" stroke-miterlimit="10"/>
<path d="M19.9875 6.43125L10.625 3.78125" stroke="white" stroke-width="1.5" stroke-miterlimit="10"/>
<path d="M10.625 3.78125L12.9937 13.2125" stroke="white" stroke-width="1.5" stroke-miterlimit="10"/>
<path d="M3.63828 10.5693L1.26953 1.13184L10.6258 3.78184" stroke="white" stroke-width="1.5" stroke-miterlimit="10"/>
<path d="M3.63867 10.5688L10.6262 3.78125" stroke="white" stroke-width="1.5" stroke-miterlimit="10"/>
<path d="M31.7125 18.5123L38.7 11.7311L29.3438 9.08105" stroke="white" stroke-width="1.5" stroke-miterlimit="10"/>
<path d="M29.3438 9.08105L31.7125 18.5123" stroke="white" stroke-width="1.5" stroke-miterlimit="10"/>
<path d="M31.7137 18.5123L22.3574 15.8623" stroke="white" stroke-width="1.5" stroke-miterlimit="10"/>
<path d="M22.3574 15.8623L24.7199 25.2998" stroke="white" stroke-width="1.5" stroke-miterlimit="10"/>
<path d="M24.7188 25.3002L31.7125 18.5127" stroke="white" stroke-width="1.5" stroke-miterlimit="10"/>
<path d="M29.3445 9.08164L19.9883 6.43164" stroke="white" stroke-width="1.5" stroke-miterlimit="10"/>
</g>
<defs>
<clipPath id="clip0_284_12">
<rect width="40" height="40" fill="white"/>
</clipPath>
</defs>
</svg>
