<svg width="21" height="21" viewBox="0 0 21 21" fill="none" xmlns="http://www.w3.org/2000/svg">
<path fill-rule="evenodd" clip-rule="evenodd" d="M1.0957 0.566406H19.5957C20.0099 0.566406 20.3457 0.902192 20.3457 1.31641V19.8164C20.3457 20.2306 20.0099 20.5664 19.5957 20.5664H1.0957C0.681489 20.5664 0.345703 20.2306 0.345703 19.8164V1.31641C0.345703 0.902192 0.681489 0.566406 1.0957 0.566406ZM11.4635 11.2067V9.56641H4.3457V11.2067H6.88691V18.5103H8.90986V11.2067H11.4635ZM12.2701 18.3174C12.5963 18.4837 12.9822 18.6085 13.4276 18.6916C13.873 18.7748 14.3425 18.8164 14.836 18.8164C15.317 18.8164 15.7739 18.7706 16.2068 18.6792C16.6397 18.5877 17.0192 18.4369 17.3455 18.2269C17.6717 18.0169 17.9299 17.7426 18.1202 17.4036C18.3105 17.0647 18.4057 16.6458 18.4057 16.1468C18.4057 15.785 18.3513 15.468 18.2426 15.1956C18.1339 14.9233 17.977 14.681 17.7721 14.4689C17.5672 14.2569 17.3214 14.0666 17.0349 13.8983C16.7484 13.7299 16.4253 13.5708 16.0656 13.4211C15.8022 13.3129 15.5659 13.2079 15.3567 13.1061C15.1476 13.0043 14.9699 12.9003 14.8235 12.7943C14.6771 12.6882 14.5642 12.5759 14.4847 12.4574C14.4052 12.3389 14.3655 12.2048 14.3655 12.0551C14.3655 11.9179 14.4011 11.7942 14.4722 11.684C14.5432 11.5738 14.6436 11.4792 14.7733 11.4002C14.9029 11.3212 15.0619 11.2599 15.2501 11.2162C15.4383 11.1726 15.6474 11.1507 15.8775 11.1507C16.0447 11.1507 16.2215 11.1632 16.4075 11.1881C16.5937 11.2131 16.7809 11.2516 16.969 11.3035C17.1572 11.3555 17.3402 11.4209 17.518 11.5C17.6958 11.579 17.8599 11.6705 18.0105 11.7744V9.90948C17.7052 9.79302 17.3716 9.70671 17.0099 9.65064C16.648 9.59448 16.2329 9.56641 15.7646 9.56641C15.2877 9.56641 14.836 9.61733 14.4094 9.71925C13.9828 9.8211 13.6075 9.98018 13.2833 10.1964C12.9592 10.4126 12.703 10.6881 12.5148 11.0228C12.3266 11.3576 12.2325 11.7578 12.2325 12.2235C12.2325 12.8182 12.405 13.3255 12.7501 13.7454C13.0951 14.1654 13.6189 14.5209 14.3216 14.812C14.5976 14.9243 14.8549 15.0345 15.0932 15.1426C15.3316 15.2507 15.5376 15.363 15.7112 15.4794C15.8848 15.5959 16.0217 15.7226 16.1221 15.8599C16.2225 15.9971 16.2727 16.153 16.2727 16.3277C16.2727 16.4566 16.2413 16.5762 16.1785 16.6863C16.1159 16.7966 16.0207 16.8922 15.8932 16.9733C15.7656 17.0543 15.6066 17.1178 15.4163 17.1635C15.226 17.2093 15.0033 17.2321 14.7482 17.2321C14.3132 17.2321 13.8825 17.1563 13.4559 17.0045C13.0292 16.8527 12.634 16.625 12.2701 16.3215V18.3174Z" fill="white"/>
</svg>
